<?xml version="1.0" standalone="no"?>
<!DOCTYPE svg PUBLIC "-//W3C//DTD SVG 20010904//EN"
 "http://www.w3.org/TR/2001/REC-SVG-20010904/DTD/svg10.dtd">
<svg version="1.0" xmlns="http://www.w3.org/2000/svg"
 width="801.000000pt" height="801.000000pt" viewBox="0 0 801.000000 801.000000"
 preserveAspectRatio="xMidYMid meet">
<metadata>
Created by potrace 1.14, written by Peter Selinger 2001-2017
</metadata>
<g transform="translate(0.000000,801.000000) scale(0.100000,-0.100000)"
fill="#000000" stroke="none">
<path d="M3841 7640 c-262 -55 -457 -223 -541 -466 -28 -80 -33 -113 -34 -224
-1 -93 4 -134 23 -195 10 -35 118 -331 131 -360 5 -11 52 -137 105 -280 53
-143 101 -269 105 -280 5 -11 43 -112 85 -225 42 -113 80 -214 85 -225 4 -11
18 -47 30 -80 12 -33 26 -69 30 -80 11 -25 164 -437 183 -490 19 -53 226 -604
237 -630 4 -11 18 -47 30 -80 12 -33 26 -69 30 -80 5 -11 45 -119 90 -240 45
-121 85 -229 90 -240 5 -11 32 -83 60 -160 28 -77 62 -167 75 -200 13 -33 80
-213 150 -400 69 -187 130 -349 135 -360 5 -11 18 -47 30 -80 11 -33 25 -69
30 -80 5 -11 28 -72 50 -135 23 -63 45 -124 50 -135 5 -11 23 -58 40 -105 17
-47 35 -94 40 -105 12 -29 62 -163 110 -295 23 -63 49 -130 57 -149 8 -18 16
-39 18 -45 1 -6 6 -22 12 -36 6 -14 16 -43 24 -65 7 -22 16 -44 20 -50 3 -5
17 -41 29 -80 12 -38 26 -74 30 -80 4 -5 13 -28 20 -50 7 -22 15 -44 19 -50 3
-5 6 -12 7 -15 5 -33 86 -157 136 -211 79 -84 226 -169 343 -199 67 -17 217
-21 285 -8 84 15 168 47 243 92 72 43 192 153 202 187 4 10 9 19 13 19 6 0 43
67 71 130 44 98 63 275 41 382 -10 51 -277 791 -325 903 -7 17 -32 82 -55 145
-24 63 -53 142 -65 175 -13 33 -42 112 -65 175 -23 63 -46 124 -50 135 -13 32
-54 138 -110 290 -29 77 -62 167 -75 200 -13 33 -33 87 -45 120 -12 33 -24 67
-27 75 -4 8 -7 17 -8 20 -1 3 -5 12 -8 20 -11 26 -139 365 -141 375 -2 6 -7
21 -13 35 -5 14 -39 104 -76 200 -36 96 -104 279 -152 405 -48 127 -88 235
-89 240 -2 6 -8 24 -15 40 -24 61 -53 138 -171 455 -300 801 -319 852 -390
1038 -16 42 -70 187 -120 322 -193 517 -243 647 -267 700 -83 179 -254 322
-450 375 -71 19 -242 28 -302 15z"/>
<path d="M2984 5194 c-225 -46 -418 -199 -505 -402 -20 -45 -95 -242 -206
-542 -29 -80 -57 -154 -62 -165 -5 -11 -31 -81 -59 -155 -28 -74 -78 -209
-112 -300 -34 -91 -77 -208 -97 -260 -19 -52 -46 -123 -59 -157 -13 -34 -24
-64 -24 -68 0 -4 -7 -23 -16 -43 -24 -56 -25 -58 -139 -367 -59 -159 -113
-303 -120 -320 -7 -16 -20 -50 -28 -75 -9 -25 -22 -58 -28 -75 -7 -16 -13 -32
-14 -35 -1 -3 -4 -12 -7 -20 -7 -17 -107 -287 -214 -575 -41 -110 -77 -207
-81 -215 -3 -8 -7 -19 -9 -25 -1 -5 -12 -35 -23 -65 -30 -86 -42 -158 -40
-249 2 -76 6 -104 25 -176 3 -11 6 -25 8 -31 4 -20 78 -166 95 -187 49 -63
123 -134 171 -166 254 -171 559 -169 805 5 111 78 187 174 242 304 30 72 259
679 268 710 2 8 15 44 30 80 14 36 37 99 52 140 14 41 29 80 34 86 10 12 38
12 469 -1 496 -14 543 -14 615 0 275 54 465 227 551 502 19 62 22 91 20 195
-2 68 -5 130 -8 138 -2 8 -8 26 -12 40 -81 268 -282 450 -557 505 -24 5 -213
13 -427 19 -62 2 -115 6 -118 9 -3 3 47 147 111 319 113 302 134 359 209 553
75 198 87 242 90 360 8 242 -107 469 -304 601 -51 34 -147 81 -185 89 -5 2
-30 8 -55 15 -62 17 -212 20 -286 4z"/>
</g>
</svg>
